<svg width="24" height="24" viewBox="0 0 24 24" fill="none" xmlns="http://www.w3.org/2000/svg">
    <path d="M22.8021 9.54685C22.9491 10.3325 23.0294 11.1551 23.0294 12.0142C23.0294 18.7265 18.5357 23.5 11.7499 23.5C5.25822 23.5 0 18.2417 0 11.75C0 5.25822 5.25822 0 11.7499 0C14.9227 0 17.5733 1.16755 19.6078 3.06227L16.2954 6.37447V6.36692C15.0618 5.19181 13.4977 4.58977 11.7499 4.58977C7.87264 4.58977 4.72214 7.86504 4.72214 11.7428C4.72214 15.6197 7.87259 18.9029 11.7499 18.9029C15.2677 18.9029 17.6615 16.8905 18.1542 14.1295H11.7499V9.54685H22.8021Z" fill="black"/>
</svg>
